<svg width="30" height="30" viewBox="0 0 30 30" fill="none" xmlns="http://www.w3.org/2000/svg">
<g clip-path="url(#clip0_673_4697)">
<path d="M24.0245 9.58012C22.3414 8.79268 20.5419 8.22039 18.6605 7.89453C18.4294 8.31228 18.1595 8.87415 17.9734 9.32112C15.9734 9.02035 13.9918 9.02035 12.0286 9.32112C11.8425 8.87415 11.5664 8.31228 11.3333 7.89453C9.44987 8.22039 7.64824 8.79478 5.96521 9.58429C2.57053 14.7141 1.65029 19.7165 2.11041 24.6478C4.36194 26.3292 6.54394 27.3506 8.68912 28.019C9.21878 27.29 9.69116 26.5151 10.0981 25.6985C9.32306 25.404 8.58074 25.0405 7.87933 24.6186C8.06541 24.4808 8.24743 24.3366 8.42328 24.1883C12.7014 26.1893 17.3496 26.1893 21.5766 24.1883C21.7545 24.3366 21.9365 24.4808 22.1206 24.6186C21.4171 25.0426 20.6727 25.406 19.8977 25.7006C20.3046 26.5151 20.775 27.2921 21.3067 28.0211C23.4539 27.3527 25.638 26.3313 27.8895 24.6478C28.4294 18.9311 26.9672 13.9747 24.0245 9.58012ZM10.6809 21.6151C9.3967 21.6151 8.34351 20.4162 8.34351 18.9562C8.34351 17.4962 9.37421 16.2952 10.6809 16.2952C11.9877 16.2952 13.0409 17.4941 13.0184 18.9562C13.0204 20.4162 11.9877 21.6151 10.6809 21.6151ZM19.319 21.6151C18.0347 21.6151 16.9815 20.4162 16.9815 18.9562C16.9815 17.4962 18.0122 16.2952 19.319 16.2952C20.6257 16.2952 21.6789 17.4941 21.6564 18.9562C21.6564 20.4162 20.6257 21.6151 19.319 21.6151Z" fill="white"/>
</g>
<defs>
<clipPath id="clip0_673_4697">
<rect width="30" height="30" fill="white"/>
</clipPath>
</defs>
</svg>
