<svg width="30" height="30" viewBox="0 0 30 30" fill="none" xmlns="http://www.w3.org/2000/svg">
<path d="M21.4167 5H8.58333C6.05242 5 4 7.05242 4 9.58333V22.4167C4 24.9476 6.05242 27 8.58333 27H21.4167C23.9485 27 26 24.9476 26 22.4167V9.58333C26 7.05242 23.9485 5 21.4167 5ZM11.3333 22.4167H8.58333V12.3333H11.3333V22.4167ZM9.95833 11.171C9.07283 11.171 8.35417 10.4468 8.35417 9.554C8.35417 8.66117 9.07283 7.937 9.95833 7.937C10.8438 7.937 11.5625 8.66117 11.5625 9.554C11.5625 10.4468 10.8448 11.171 9.95833 11.171ZM22.3333 22.4167H19.5833V17.2797C19.5833 14.1923 15.9167 14.4261 15.9167 17.2797V22.4167H13.1667V12.3333H15.9167V13.9513C17.1963 11.5808 22.3333 11.4057 22.3333 16.2209V22.4167Z" fill="white"/>
</svg>
