<svg width="103" height="103" viewBox="0 0 103 103" fill="none" xmlns="http://www.w3.org/2000/svg">
<path d="M103 51.4994C103 48.7669 101.424 46.4546 99.2163 45.2985L91.0183 40.9891L99.2163 36.6797C101.424 35.5236 103 33.2114 103 30.4789C103 27.7464 101.424 25.4341 99.2163 24.278L54.758 0.840181C53.8122 0.315251 52.6561 0 51.5 0C50.3439 0 49.1877 0.315251 48.242 0.840913L3.78369 24.1737C1.57616 25.4354 0 27.7477 0 30.4802C0 33.2126 1.57624 35.5249 3.78369 36.681L11.9817 40.9904L3.78369 45.2998C1.57616 46.456 0 48.7682 0 51.5007C0 54.2331 1.57624 56.5454 3.78369 57.7015L11.9817 62.0109L3.78369 66.3203C1.57616 67.5813 0 69.8936 0 72.5211C0 75.2536 1.57624 77.5659 3.78369 78.722L48.242 102.16C49.1878 102.686 50.3439 103.001 51.5 103.001C52.6561 103.001 53.8122 102.686 54.758 102.16L99.2163 78.8271C101.424 77.6709 103 75.3587 103 72.6262C103 69.8938 101.424 67.5815 99.2163 66.4254L91.0183 62.0105L99.2163 57.7011C101.424 56.545 103 54.2328 103 51.5003V51.4994ZM5.88536 32.4758C5.14929 32.0557 4.62436 31.3197 4.62436 30.374C4.62362 29.4275 5.25486 28.797 5.99018 28.3768L50.4485 4.93899C50.7638 4.72858 51.079 4.62374 51.4998 4.62374C51.9199 4.62374 52.2359 4.72857 52.5512 4.93899L97.1146 28.3768C97.8506 28.7969 98.3756 29.533 98.3756 30.374C98.3756 31.2149 97.8499 32.0558 97.1146 32.3711L52.5512 55.914C52.2359 56.1244 51.9206 56.2293 51.4998 56.2293C51.0797 56.2293 50.7638 56.1245 50.4485 55.914L5.88536 32.4758ZM97.1143 70.5229C97.8503 70.943 98.3753 71.6791 98.3753 72.6248C98.3753 73.5705 97.8496 74.3066 97.1143 74.6219L52.5508 98.0597C52.2356 98.2702 51.9203 98.375 51.4995 98.375C51.0794 98.375 50.7634 98.2702 50.4482 98.0597L5.88476 74.6219C5.25426 74.2018 4.7286 73.4657 4.7286 72.52C4.7286 71.5743 5.25426 70.8382 5.9896 70.5229L17.0255 64.7421L48.241 81.1379C49.1867 81.6635 50.3428 81.9788 51.4989 81.9788C52.6551 81.9788 53.8112 81.6635 54.7569 81.1379L85.9723 64.7421L97.1143 70.5229ZM97.0094 53.4965L52.5511 76.9343C52.2358 77.1447 51.9206 77.2496 51.4998 77.2496C51.0797 77.2496 50.7637 77.1447 50.4485 76.9343L5.88503 53.6016C5.25452 53.1815 4.72886 52.4454 4.72886 51.4997C4.72886 50.554 5.25452 49.8179 5.98986 49.5026L17.0258 43.7218L48.2412 60.1176C49.187 60.6432 50.3431 60.9585 51.4992 60.9585C52.6553 60.9585 53.8115 60.6432 54.7572 60.1176L85.9726 43.7218L97.1133 49.3977C97.8494 49.8178 98.3743 50.5539 98.3743 51.3948C98.2694 52.4454 97.7438 53.1815 97.0085 53.4967L97.0094 53.4965Z" fill="#171B27"/>
</svg>
