<svg width="103" height="90" viewBox="0 0 103 90" fill="none" xmlns="http://www.w3.org/2000/svg">
<path d="M72.9997 27C65.1355 27 58.7142 33.4214 58.7142 41.2856C58.7142 49.1498 65.1355 55.5712 72.9997 55.5712C80.864 55.5712 87.2853 49.1498 87.2853 41.2856C87.2853 33.4214 80.864 27 72.9997 27ZM72.9997 31.2859C78.5482 31.2859 82.9994 35.7377 82.9994 41.2856C82.9994 46.8335 78.5477 51.2853 72.9997 51.2853C67.4513 51.2853 63.0001 46.8335 63.0001 41.2856C63.0001 35.7377 67.4518 31.2859 72.9997 31.2859ZM72.9997 60.5714C56.4871 60.5714 43 73.6772 43 89.8569H47.2859C47.2859 76.0547 58.7435 64.8571 73 64.8571C87.2563 64.8571 98.7141 76.0551 98.7141 89.8569H103C103 73.6784 89.5141 60.5714 73.0003 60.5714H72.9997Z" fill="#171B27"/>
<path d="M29.9997 0C22.1355 0 15.7142 6.42137 15.7142 14.2856C15.7142 22.1498 22.1355 28.5712 29.9997 28.5712C37.864 28.5712 44.2853 22.1498 44.2853 14.2856C44.2853 6.42137 37.864 0 29.9997 0ZM29.9997 4.28593C35.5482 4.28593 39.9994 8.73768 39.9994 14.2856C39.9994 19.8335 35.5477 24.2853 29.9997 24.2853C24.4513 24.2853 20.0001 19.8335 20.0001 14.2856C20.0001 8.73768 24.4518 4.28593 29.9997 4.28593ZM29.9997 33.5714C13.4871 33.5714 0 46.6772 0 62.8569H4.28593C4.28593 49.0547 15.7435 37.8571 30 37.8571C44.2563 37.8571 55.7141 49.0551 55.7141 62.8569H60C60 46.6784 46.5141 33.5714 30.0003 33.5714H29.9997Z" fill="#171B27"/>
</svg>
