<svg width="250" height="250" viewBox="0 0 250 250" fill="none" xmlns="http://www.w3.org/2000/svg">
<path d="M125 225C98.478 225 73.0425 214.465 54.2884 195.712C35.5355 176.958 25 151.522 25 125C25 98.4784 35.5355 73.0425 54.2884 54.2884C73.0425 35.5355 98.4784 25 125 25C151.522 25 176.958 35.5355 195.712 54.2884C214.465 73.0425 225 98.4784 225 125C224.97 151.512 214.424 176.931 195.677 195.677C176.93 214.424 151.514 224.97 125 225ZM125 31.6689C100.247 31.6689 76.5091 41.5019 59.0046 59.0049C41.5019 76.5091 31.6685 100.25 31.6685 125C31.6685 149.751 41.5015 173.491 59.0046 190.996C76.5087 208.498 100.25 218.332 125 218.332C149.75 218.332 173.491 208.499 190.995 190.996C208.498 173.492 218.332 149.751 218.332 125C218.303 100.255 208.461 76.5324 190.964 59.0354C173.467 41.5385 149.746 31.6963 124.999 31.6681L125 31.6689Z" fill="#5B2B86"/>
<path d="M125.002 205.001C103.785 205.001 83.437 196.572 68.4353 181.569C53.4324 166.566 45.0039 146.218 45.0039 125.002C45.0039 103.786 53.4324 83.437 68.4353 68.4353C83.4381 53.4324 103.786 45.0039 125.002 45.0039C146.218 45.0039 166.567 53.4324 181.569 68.4353C196.572 83.4381 205.001 103.786 205.001 125.002C204.975 146.212 196.539 166.545 181.543 181.543C166.544 196.539 146.211 204.975 125.002 205.001ZM125.002 51.669C105.553 51.669 86.8998 59.395 73.1476 73.148C59.3946 86.901 51.6686 105.552 51.6686 125.003C51.6686 144.453 59.3946 163.105 73.1476 176.857C86.9006 190.61 105.552 198.336 125.002 198.336C144.453 198.336 163.105 190.61 176.857 176.857C190.61 163.104 198.336 144.453 198.336 125.003C198.314 105.561 190.58 86.9211 176.833 73.1746C163.085 59.4277 144.445 51.6941 125.005 51.672L125.002 51.669Z" fill="#5B2B86"/>
<path d="M124.999 182.22C124.415 182.221 123.839 182.066 123.333 181.773L76.6666 154.83C75.6354 154.235 75 153.133 75 151.943V98.0578C75 96.8674 75.6354 95.7662 76.6666 95.171L123.333 68.2277C124.364 67.6324 125.635 67.6324 126.666 68.2277L173.332 95.171C174.363 95.7662 174.999 96.8674 174.999 98.0578V151.943C174.999 153.133 174.363 154.235 173.332 154.83L126.666 181.773C126.16 182.066 125.584 182.221 124.999 182.22ZM81.6666 150.021L124.999 175.037L168.332 150.021V99.9794L124.999 74.9796L81.6666 99.9794V150.021Z" fill="#5B2B86"/>
</svg>
