<svg width="500" height="500" viewBox="0 0 500 500" fill="none" xmlns="http://www.w3.org/2000/svg">
<path d="M368.291 248.745C370.713 244.142 370.552 236.572 367.864 232.117C365.176 227.65 360.333 222.901 355.143 222.901H280.483L321.351 69.6797C322.515 65.2241 321.564 59.4465 318.743 55.8082C315.934 52.17 311.586 49 306.984 49H203.921C197.166 49 191.266 55.5809 189.554 62.1089L130.494 287.571C129.317 292.038 130.267 295.249 133.091 298.915C135.9 302.539 140.248 303.168 144.862 303.168H250.393V440.202C250.393 444.857 251.357 448.911 255.876 450.022C260.399 451.133 263.984 449.033 266.151 444.913L368.291 248.745Z" fill="#5B2B86"/>
</svg>
