<svg width="30" height="30" viewBox="0 0 30 30" fill="none" xmlns="http://www.w3.org/2000/svg">
<path d="M28.2008 6.73899C27.2294 7.16983 26.1856 7.46098 25.09 7.59175C26.2083 6.92134 27.0671 5.85991 27.4714 4.59524C26.4248 5.21604 25.2656 5.66668 24.0319 5.90952C23.044 4.85679 21.6361 4.19922 20.0784 4.19922C17.0871 4.19922 14.662 6.62432 14.662 9.61539C14.662 10.0399 14.7099 10.4534 14.8023 10.8498C10.3007 10.6239 6.3098 8.46757 3.63838 5.19058C3.17207 5.99047 2.90508 6.9209 2.90508 7.91358C2.90508 9.79273 3.86119 11.4506 5.31473 12.4219C4.42694 12.3939 3.59159 12.1502 2.86156 11.7446C2.86112 11.7672 2.86112 11.7898 2.86112 11.8127C2.86112 14.4369 4.72809 16.6259 7.20585 17.1237C6.7513 17.2476 6.2728 17.3137 5.77886 17.3137C5.42984 17.3137 5.09061 17.2798 4.75986 17.2164C5.44921 19.3682 7.44934 20.9343 9.81961 20.9778C7.96592 22.4307 5.63046 23.2965 3.09286 23.2965C2.65571 23.2965 2.22444 23.2708 1.80078 23.2208C4.19781 24.7576 7.04483 25.6544 10.1036 25.6544C20.0662 25.6544 25.5141 17.401 25.5141 10.2436C25.5141 10.0088 25.5089 9.7751 25.4985 9.54293C26.5564 8.77917 27.4747 7.82523 28.2008 6.73899Z" fill="white"/>
</svg>
