<svg width="250" height="250" viewBox="0 0 250 250" fill="none" xmlns="http://www.w3.org/2000/svg">
<path d="M111.35 175.19H94.842V191.063H75.1592V171.38H91.6668V158.682H75.7935V144.079H61.1899V159.952H25V140.269H44.6827V123.762H75.7935V107.888H90.3971V95.1903H74.5238V78.6827H58.0163V59H94.2062V75.5076H110.079V91.3808H139.921V75.5076H155.794V59H191.984V78.6827H175.476V95.1903H159.603V107.888H174.206V123.762H205.953V140.269H225V159.952H188.81V144.079H174.206V158.682H158.969V171.38H174.842V191.063H155.16V175.19H138.652V158.682H111.351V175.19H111.35ZM94.842 127.573V139.637H107.54V127.573H94.842ZM142.458 127.573V139.637H155.157V127.573H142.458Z" fill="#5B2B86"/>
</svg>
